<svg
        viewBox="0 0 595.28 841.89"
        xml:space="preserve"
        xmlns="http://www.w3.org/2000/svg"
    >
        <path
            fill="#fafafb"
            d="M420.03 33.26s22.42 132.54 153.79 189.02c0 0 3.16 231.75-90.59 432.96 0 0-127.9 151.4-224.59 186.66 0 0-146.12-141.94-162.08-213.78 0 0-53.71-137.7-43.83-383.57 0 0 72.9-32.35 115.68-181.81L270.19 0l149.84 33.26z"
        />
        <linearGradient
            id="a"
            x1="302.93"
            x2="302.93"
            y1="795.34"
            y2="41.086"
            gradientUnits="userSpaceOnUse"
        >
            <stop stop-color="#6B56A0" offset="0" />
            <stop stop-color="#675AA3" offset=".1432" />
            <stop stop-color="#4C6EB4" offset="1" />
        </linearGradient>
        <path
            d="M397.75 72.35S417.11 190.68 530 241.63c0 0 2.7 205.7-77.76 384.92 0 0-110.5 136.14-194.6 168.79 0 0-128.02-125.99-142.08-190.55 0 0-47.39-123.85-38.66-345.57 0 0 64.25-28.8 101.81-162.87l89-55.26 130.04 31.26z"
            style="fill: url(#a)"
        />
        <path
            fill="#fafafb"
            d="m265.51 347.58-69.7 2 .79 48.44 56.64-.32c.5 29.46-.83 56.56-3.95 81.29-3.08 24.44-7.21 39.31-12.37 44.79-5.13 5.45-11.97 7.91-20.49 7.42-7.66-.44-15.37-1.41-23.14-2.92l-6.05-19.18c9.64 2.79 17.4 4.33 23.27 4.62 5.39.26 9.3-1.42 11.73-5.08 2.43-3.67 4.78-14.81 7.08-33.55 2.31-18.91 3.47-38.84 3.47-59.76l-35.91-.09c.52 49.88-13.37 88.69-40.88 116.31l-16.14-11.88c12.76-12.73 22.38-27.54 28.77-44.41 6.46-17.09 9.42-41.14 8.8-72.27l-1.05-52.86-30.42.87-.43-17.2 54.11-2-.78-49.7 20.09-1.22.6 49.88 45.87-1.71.09 18.53zm171.21 185.01-15.64 14.87c-52.46-37.75-80.43-89.98-85.28-158.63-6.75 2.36-16.83 4.92-30.15 7.68l-.33 107.11 33.82-11.01-.18 19.5-75.19 25.51-11-16.72 30.7-10.19-.11-129.46c40.2-7.62 75.85-20.94 106.5-40.2l16.49 14.73c-15.86 10.51-32.37 19.17-49.51 26.03.62 15.76 3.94 33.99 9.95 54.75 13.46-5.67 27.09-16.34 40.91-32.17l17.32 12.35c-11.36 15.01-29.41 28.08-53.79 39.15 15.87 32.17 37.59 57.67 65.49 76.7zm-1.85-203.26-131.04 4.51c-7.07 16.45-18.18 33.02-33.17 49.63l-18.21-9.79c25.34-26.44 41.17-59.44 46.96-98.9l21.35 4.28c-1.55 10.71-4.64 22.66-9.25 35.82l123.87-5.3-.51 19.75z"
        />
    </svg>